<svg width="84" height="84" viewBox="0 0 84 84" fill="none" xmlns="http://www.w3.org/2000/svg">
<path d="M74 0H10C4.48 0 0 4.48 0 10V74C0 79.52 4.48 84 10 84H74C79.52 84 84 79.52 84 74V10C84 4.48 79.52 0 74 0ZM67.44 58L59.98 57.98C59.98 57.98 59.82 58 59.56 58C58.96 58 57.72 57.84 56.26 56.84C53.64 55.02 51.14 50.5 49.16 50.5C49.02 50.5 48.9 50.52 48.78 50.56C47.06 51.1 46.54 52.82 46.54 54.92C46.54 55.66 46.02 56 44.62 56H40.76C36.44 56 32.26 55.9 27.56 50.76C20.64 43.18 14.16 29.7 14.16 29.7C14.16 29.7 13.8 28.92 14.18 28.46C14.54 28.04 15.38 28 15.7 28C15.78 28 15.82 28 15.82 28H23.82C23.82 28 24.56 28.14 25.1 28.54C25.56 28.88 25.8 29.5 25.8 29.5C25.8 29.5 27.16 32.14 28.86 35.12C31.72 40.04 33.26 41.68 34.36 41.68C34.54 41.68 34.72 41.64 34.9 41.54C36.54 40.64 36.06 33.36 36.06 33.36C36.06 33.36 36.08 30.72 35.22 29.56C34.56 28.64 33.3 28.38 32.74 28.3C32.3 28.24 33.02 27.2 33.98 26.72C35.22 26.12 37.28 26 39.76 26H40.96C43.3 26.04 43.36 26.28 44.28 26.5C47.04 27.16 46.1 29.74 46.1 35.92C46.1 37.9 45.74 40.68 47.16 41.62C47.26 41.68 47.4 41.72 47.58 41.72C48.5 41.72 50.48 40.54 53.64 35.2C55.4 32.16 56.76 29.14 56.76 29.14C56.76 29.14 57.06 28.6 57.52 28.32C57.96 28.06 57.96 28.06 58.54 28.06H58.6C59.24 28.06 65.6 28 67 28H67.16C68.5 28 69.72 28.02 69.94 28.84C70.26 30.08 68.96 32.3 65.54 36.9C59.9 44.44 59.26 43.88 63.94 48.24C68.42 52.4 69.34 54.42 69.5 54.68C71.36 57.76 67.44 58 67.44 58Z" fill="white"/>
</svg>
