<svg width="51" height="51" viewBox="0 0 51 51" fill="none" xmlns="http://www.w3.org/2000/svg">
<path d="M0 15C0 6.71573 6.71573 0 15 0H34C43.3888 0 51 7.61116 51 17V31C51 42.0457 42.0457 51 31 51H10C4.47715 51 0 46.5228 0 41V15Z" fill="#7C3AED"/>
<path d="M11.0691 22.57C9.64906 22.57 8.93906 23.89 8.93906 26.53V26.74C8.93906 27 8.87906 27.13 8.75906 27.13C8.45906 27.13 8.22906 26.77 8.06906 26.05C7.92906 25.33 7.85906 24.72 7.85906 24.22C7.85906 23.4 8.03906 22.67 8.39906 22.03C8.77906 21.39 9.35906 21.07 10.1391 21.07C11.6791 21.07 13.1591 21.97 14.5791 23.77C15.7791 22.37 17.0591 20.96 18.4191 19.54C19.7991 18.1 20.8691 17.02 21.6291 16.3L22.7691 15.19C24.0091 13.33 25.0291 12.4 25.8291 12.4C26.0291 12.4 26.1291 12.49 26.1291 12.67C26.1291 12.79 26.0891 12.93 26.0091 13.09C24.2491 16.55 22.6391 20.45 21.1791 24.79C19.3391 30.31 18.4191 34.54 18.4191 37.48C18.4191 38.4 18.5291 39.07 18.7491 39.49C18.8291 39.59 18.8691 39.69 18.8691 39.79C18.8691 39.93 18.7491 40 18.5091 40C17.9691 40 17.5191 39.86 17.1591 39.58C16.7991 39.32 16.5391 38.97 16.3791 38.53C16.2391 38.09 16.1391 37.69 16.0791 37.33C16.0191 36.99 15.9891 36.64 15.9891 36.28C15.9891 35.68 16.0991 34.79 16.3191 33.61C16.5391 32.43 16.6491 31.57 16.6491 31.03C16.6491 30.23 16.4691 29.29 16.1091 28.21C15.7691 27.11 15.3091 26.11 14.7291 25.21C14.0891 26.09 13.4991 26.97 12.9591 27.85C12.4391 28.73 12.0691 29.38 11.8491 29.8L11.5491 30.46C10.8291 31.94 10.1191 33.29 9.41906 34.51C8.71906 35.73 8.19906 36.58 7.85906 37.06L7.34906 37.75C7.12906 38.01 6.92906 38.14 6.74906 38.14C6.52906 38.14 6.41906 37.91 6.41906 37.45C6.47906 34.63 9.03906 30.26 14.0991 24.34C13.1191 23.16 12.1091 22.57 11.0691 22.57ZM21.3591 17.86C19.1591 19.78 17.0991 22.03 15.1791 24.61C16.0191 25.89 16.6691 27.35 17.1291 28.99C17.1891 29.17 17.2391 29.26 17.2791 29.26L17.4291 28.99C17.9291 27.29 18.5291 25.53 19.2291 23.71C19.9491 21.87 20.5391 20.46 20.9991 19.48L21.6891 18.04C21.7491 17.92 21.7791 17.84 21.7791 17.8C21.7791 17.76 21.7491 17.74 21.6891 17.74L21.3591 17.86ZM41.6435 16.12C40.7435 16.12 39.5135 16.82 37.9535 18.22C37.4135 18.66 37.0935 19.02 36.9935 19.3C36.3535 20.98 35.7235 23.64 35.1035 27.28C34.4835 30.9 34.1735 33.58 34.1735 35.32C34.1735 35.88 34.1935 36.38 34.2335 36.82C34.2735 37.24 34.3135 37.52 34.3535 37.66L34.4135 37.9C34.4535 38.1 34.4735 38.21 34.4735 38.23C34.4735 38.45 34.3735 38.56 34.1735 38.56C33.9535 38.56 33.6835 38.43 33.3635 38.17C33.0435 37.93 32.7535 37.59 32.4935 37.15C31.9935 36.27 31.7435 34.94 31.7435 33.16C31.7435 30.42 32.3935 27.07 33.6935 23.11C33.7535 22.87 33.7835 22.71 33.7835 22.63C33.7835 22.49 33.7435 22.42 33.6635 22.42L33.2735 22.66C31.8135 23.84 30.2135 25.57 28.4735 27.85C27.8535 28.65 27.2535 29.51 26.6735 30.43C26.0935 31.35 25.6735 32.07 25.4135 32.59L25.0235 33.37C24.5435 34.41 23.8135 35.5 22.8335 36.64C21.8535 37.78 21.0335 38.35 20.3735 38.35C20.1535 38.35 20.0435 38.24 20.0435 38.02L20.1335 37.63C20.3535 37.01 21.2835 35.1 22.9235 31.9C24.5635 28.68 25.8735 26.22 26.8535 24.52C27.7935 22.9 28.7135 21.37 29.6135 19.93C30.5135 18.49 31.1835 17.46 31.6235 16.84L32.2835 15.88C32.3835 15.74 32.5135 15.57 32.6735 15.37C32.8335 15.15 33.1635 14.86 33.6635 14.5C34.1635 14.14 34.6535 13.95 35.1335 13.93C35.3535 13.93 35.4635 14.04 35.4635 14.26C35.4635 14.4 35.4135 14.56 35.3135 14.74C32.7535 18.84 30.9235 22.03 29.8235 24.31C29.8035 24.43 29.7935 24.53 29.7935 24.61C29.7935 24.73 29.8235 24.79 29.8835 24.79C29.9635 24.79 30.0835 24.71 30.2435 24.55L33.3035 21.46C38.5235 16.36 41.8935 13.8 43.4135 13.78C43.9735 13.78 44.2535 14.11 44.2535 14.77C44.2535 15.29 44.0935 15.83 43.7735 16.39C43.4735 16.93 43.1835 17.2 42.9035 17.2C42.7835 17.2 42.7135 17.12 42.6935 16.96C42.6735 16.9 42.6435 16.83 42.6035 16.75C42.5835 16.65 42.4835 16.52 42.3035 16.36C42.1235 16.2 41.9035 16.12 41.6435 16.12Z" fill="white"/>
</svg>
